{
	"asset":{
		"version":"2.0",
		"generator":"Created using the official Cinema 4D glTF Exporter 1.000x284978"
	},
	"scenes":[{
		"nodes":[0]
	}],
	"nodes":[{
		"name":"cgaxis_electronics_18_06.1",
		"children":[1,
		2]
	},
	{
		"name":"cgaxis_electronics_18_06.1-default",
		"mesh":0
	},
	{
		"name":"cgaxis_electronics_18_06.1-鏉愯川",
		"mesh":1
	}],
	"meshes":[{
		"name":"cgaxis_electronics_18_06.1-default",
		"primitives":[{
			"attributes":{
				"POSITION":1,
				"NORMAL":2,
				"TEXCOORD_0":3
			},
			"indices":0,
			"material":0
		}]
	},
	{
		"name":"cgaxis_electronics_18_06.1-鏉愯川",
		"primitives":[{
			"attributes":{
				"POSITION":5,
				"NORMAL":6,
				"TEXCOORD_0":7
			},
			"indices":4,
			"material":1
		}]
	}],
	"accessors":[{
		"bufferView":0,
		"type":"SCALAR",
		"componentType":5123,
		"count":125844,
		"byteOffset":0,
		"min":[0],
		"max":[22225]
	},
	{
		"bufferView":1,
		"type":"VEC3",
		"componentType":5126,
		"count":22226,
		"byteOffset":0,
		"min":[-233.5,
		0.0,
		-91.75869750976563],
		"max":[233.5,
		404.8380126953125,
		91.75869750976563]
	},
	{
		"bufferView":1,
		"type":"VEC3",
		"componentType":5126,
		"count":22226,
		"byteOffset":12,
		"min":[-1.0,
		-1.0,
		-1.0],
		"max":[1.0,
		1.0,
		1.0]
	},
	{
		"bufferView":1,
		"type":"VEC2",
		"componentType":5126,
		"count":22226,
		"byteOffset":24,
		"min":[-1.5742000341415406,
		-21.76709747314453],
		"max":[34.790794372558597,
		3.1223998069763185]
	},
	{
		"bufferView":2,
		"type":"SCALAR",
		"componentType":5123,
		"count":6,
		"byteOffset":0,
		"min":[0],
		"max":[3]
	},
	{
		"bufferView":3,
		"type":"VEC3",
		"componentType":5126,
		"count":4,
		"byteOffset":0,
		"min":[-216.0,
		118.65011596679688,
		6.98543643951416],
		"max":[216.0,
		387.6227111816406,
		30.517436981201173]
	},
	{
		"bufferView":3,
		"type":"VEC3",
		"componentType":5126,
		"count":4,
		"byteOffset":12,
		"min":[0.0,
		0.0871562510728836,
		0.9961875677108765],
		"max":[0.0,
		0.0871562510728836,
		0.9961875677108765]
	},
	{
		"bufferView":3,
		"type":"VEC2",
		"componentType":5126,
		"count":4,
		"byteOffset":24,
		"min":[0.0,
		0.0],
		"max":[1.0,
		1.0]
	}],
	"bufferViews":[{
		"buffer":0,
		"byteOffset":0,
		"byteLength":251688,
		"target":34963
	},
	{
		"buffer":0,
		"byteOffset":251688,
		"byteLength":711232,
		"target":34962,
		"byteStride":32
	},
	{
		"buffer":1,
		"byteOffset":0,
		"byteLength":12,
		"target":34963
	},
	{
		"buffer":1,
		"byteOffset":12,
		"byteLength":128,
		"target":34962,
		"byteStride":32
	}],
	"buffers":[{
		"uri":"data:application/octet-stream;base64,",
		"byteLength":962920
	},
	{
		"uri":"data:application/octet-stream;base64,",
		"byteLength":140
	}],
	"images":[{
		"uri":"data:image/jpeg;base64,"
	}],
	"samplers":[{
		"magFilter":9729,
		"minFilter":9729,
		"wrapS":10497,
		"wrapT":10497
	}],
	"textures":[{
		"sampler":0,
		"source":0
	}],
	"materials":[{
		"pbrMetallicRoughness":{
			"baseColorFactor":[0.17,
			0.17,
			0.17,
			1.0],
			"metallicFactor":0.0,
			"roughnessFactor":0.5
		},
		"emissiveFactor":[0.0,
		0.0,
		0.0],
		"alphaMode":"OPAQUE",
		"doubleSided":false,
		"name":"default"
	},
	{
		"pbrMetallicRoughness":{
			"baseColorTexture":{
				"index":0
			},
			"baseColorFactor":[1.0,
			1.0,
			1.0,
			1.0],
			"metallicFactor":0.0,
			"roughnessFactor":0.5
		},
		"emissiveFactor":[0.0,
		0.0,
		0.0],
		"alphaMode":"OPAQUE",
		"doubleSided":false,
		"name":"鏉愯川"
	}]
}