{
	"asset":{
		"version":"2.0",
		"generator":"Created using the official Cinema 4D glTF Exporter 1.000x284978"
	},
	"scenes":[{
		"nodes":[0]
	}],
	"nodes":[{
		"name":"123.obj",
		"children":[1,
		4,
		5,
		6]
	},
	{
		"name":"obj_02",
		"children":[2,
		3]
	},
	{
		"name":"obj_02-Default",
		"mesh":0
	},
	{
		"name":"obj_02-材质.1",
		"mesh":1
	},
	{
		"name":"obj_02.1",
		"mesh":2
	},
	{
		"name":"obj_01",
		"mesh":3
	},
	{
		"name":"obj_03",
		"mesh":4
	}],
	"meshes":[{
		"name":"obj_02-Default",
		"primitives":[{
			"attributes":{
				"POSITION":1,
				"NORMAL":2,
				"TEXCOORD_0":3
			},
			"indices":0,
			"material":0
		}]
	},
	{
		"name":"obj_02-材质.1",
		"primitives":[{
			"attributes":{
				"POSITION":5,
				"NORMAL":6,
				"TEXCOORD_0":7
			},
			"indices":4,
			"material":1
		}]
	},
	{
		"name":"obj_02.1",
		"primitives":[{
			"attributes":{
				"POSITION":9,
				"NORMAL":10,
				"TEXCOORD_0":11
			},
			"indices":8
		}]
	},
	{
		"name":"obj_01",
		"primitives":[{
			"attributes":{
				"POSITION":13,
				"NORMAL":14,
				"TEXCOORD_0":15
			},
			"indices":12,
			"material":0
		}]
	},
	{
		"name":"obj_03",
		"primitives":[{
			"attributes":{
				"POSITION":17,
				"NORMAL":18,
				"TEXCOORD_0":19
			},
			"indices":16,
			"material":0
		}]
	}],
	"accessors":[{
		"bufferView":0,
		"type":"SCALAR",
		"componentType":5123,
		"count":1266,
		"byteOffset":0,
		"min":[0],
		"max":[259]
	},
	{
		"bufferView":1,
		"type":"VEC3",
		"componentType":5126,
		"count":260,
		"byteOffset":0,
		"min":[-93.23880004882813,
		0.0,
		-221.12159729003907],
		"max":[92.15139770507813,
		393.6382141113281,
		194.46609497070313]
	},
	{
		"bufferView":1,
		"type":"VEC3",
		"componentType":5126,
		"count":260,
		"byteOffset":12,
		"min":[-1.0,
		-1.0,
		-0.9999688267707825],
		"max":[1.0,
		1.0,
		0.9880625605583191]
	},
	{
		"bufferView":1,
		"type":"VEC2",
		"componentType":5126,
		"count":260,
		"byteOffset":24,
		"min":[0.03380599617958069,
		-1.4681909084320069],
		"max":[0.9607570171356201,
		0.5]
	},
	{
		"bufferView":2,
		"type":"SCALAR",
		"componentType":5123,
		"count":6,
		"byteOffset":0,
		"min":[0],
		"max":[3]
	},
	{
		"bufferView":3,
		"type":"VEC3",
		"componentType":5126,
		"count":4,
		"byteOffset":0,
		"min":[-81.73090362548828,
		11.3193998336792,
		-202.15870666503907],
		"max":[80.64350128173828,
		365.8800048828125,
		-202.15870666503907]
	},
	{
		"bufferView":3,
		"type":"VEC3",
		"componentType":5126,
		"count":4,
		"byteOffset":12,
		"min":[0.0,
		0.0,
		-1.0],
		"max":[0.0,
		0.0,
		-1.0]
	},
	{
		"bufferView":3,
		"type":"VEC2",
		"componentType":5126,
		"count":4,
		"byteOffset":24,
		"min":[0.09515155106782913,
		-0.969393789768219],
		"max":[0.9408515095710754,
		-0.07403886318206787]
	},
	{
		"bufferView":4,
		"type":"SCALAR",
		"componentType":5123,
		"count":6,
		"byteOffset":0,
		"min":[0],
		"max":[3]
	},
	{
		"bufferView":5,
		"type":"VEC3",
		"componentType":5126,
		"count":4,
		"byteOffset":0,
		"min":[-81.73090362548828,
		11.3193998336792,
		-202.15870666503907],
		"max":[80.64350128173828,
		365.8800048828125,
		-202.15870666503907]
	},
	{
		"bufferView":5,
		"type":"VEC3",
		"componentType":5126,
		"count":4,
		"byteOffset":12,
		"min":[0.0,
		0.0,
		-1.0],
		"max":[0.0,
		0.0,
		-1.0]
	},
	{
		"bufferView":5,
		"type":"VEC2",
		"componentType":5126,
		"count":4,
		"byteOffset":24,
		"min":[0.09134548902511597,
		-1.329399824142456],
		"max":[0.9032174348831177,
		0.4434030055999756]
	},
	{
		"bufferView":6,
		"type":"SCALAR",
		"componentType":5123,
		"count":6114,
		"byteOffset":0,
		"min":[0],
		"max":[1451]
	},
	{
		"bufferView":7,
		"type":"VEC3",
		"componentType":5126,
		"count":1452,
		"byteOffset":0,
		"min":[-92.88059997558594,
		0.025800000876188279,
		194.52490234375],
		"max":[93.23880004882813,
		393.4679870605469,
		221.10220336914063]
	},
	{
		"bufferView":7,
		"type":"VEC3",
		"componentType":5126,
		"count":1452,
		"byteOffset":12,
		"min":[-1.0,
		-1.0,
		-0.9999688267707825],
		"max":[1.0,
		1.0,
		1.0]
	},
	{
		"bufferView":7,
		"type":"VEC2",
		"componentType":5126,
		"count":1452,
		"byteOffset":24,
		"min":[-0.16189998388290406,
		0.0],
		"max":[1.0,
		17.066600799560548]
	},
	{
		"bufferView":8,
		"type":"SCALAR",
		"componentType":5123,
		"count":6885,
		"byteOffset":0,
		"min":[0],
		"max":[2476]
	},
	{
		"bufferView":9,
		"type":"VEC3",
		"componentType":5126,
		"count":2477,
		"byteOffset":0,
		"min":[-81.26390075683594,
		1.5891000032424927,
		200.92010498046876],
		"max":[81.44170379638672,
		392.87811279296877,
		221.12159729003907]
	},
	{
		"bufferView":9,
		"type":"VEC3",
		"componentType":5126,
		"count":2477,
		"byteOffset":12,
		"min":[-1.0,
		-1.0,
		-1.0],
		"max":[1.0,
		1.0,
		1.0]
	},
	{
		"bufferView":9,
		"type":"VEC2",
		"componentType":5126,
		"count":2477,
		"byteOffset":24,
		"min":[-1.7093000411987305,
		-1.4605998992919922],
		"max":[2.7093000411987306,
		2.7093000411987306]
	}],
	"bufferViews":[{
		"buffer":0,
		"byteOffset":0,
		"byteLength":2532,
		"target":34963
	},
	{
		"buffer":0,
		"byteStride":32,
		"byteOffset":2532,
		"byteLength":8320,
		"target":34962
	},
	{
		"buffer":1,
		"byteOffset":0,
		"byteLength":12,
		"target":34963
	},
	{
		"buffer":1,
		"byteStride":32,
		"byteOffset":12,
		"byteLength":128,
		"target":34962
	},
	{
		"buffer":2,
		"byteOffset":0,
		"byteLength":12,
		"target":34963
	},
	{
		"buffer":2,
		"byteStride":32,
		"byteOffset":12,
		"byteLength":128,
		"target":34962
	},
	{
		"buffer":3,
		"byteOffset":0,
		"byteLength":12228,
		"target":34963
	},
	{
		"buffer":3,
		"byteStride":32,
		"byteOffset":12228,
		"byteLength":46464,
		"target":34962
	},
	{
		"buffer":4,
		"byteOffset":0,
		"byteLength":13770,
		"target":34963
	},
	{
		"buffer":4,
		"byteStride":32,
		"byteOffset":13772,
		"byteLength":79264,
		"target":34962
	}],
	"buffers":[{
		"uri":"data:application/octet-stream;base64,",
		"byteLength":10852
	},
	{
		"uri":"data:application/octet-stream;base64,",
		"byteLength":140
	},
	{
		"uri":"data:application/octet-stream;base64,",
		"byteLength":140
	},
	{
		"uri":"data:application/octet-stream;base64,",
		"byteLength":58692
	},
	{
		"uri":"data:application/octet-stream;base64,",
		"byteLength":93036
	}],
	"images":[{
		"uri":"data:image/jpeg;base64,"
	}],
	"samplers":[{
		"magFilter":9729,
		"minFilter":9729,
		"wrapS":10497,
		"wrapT":10497
	}],
	"textures":[{
		"sampler":0,
		"source":0
	}],
	"materials":[{
		"pbrMetallicRoughness":{
			"baseColorFactor":[0.22,
			0.22,
			0.22,
			1.0],
			"metallicFactor":0.0,
			"roughnessFactor":0.5
		},
		"emissiveFactor":[0.0,
		0.0,
		0.0],
		"alphaMode":"OPAQUE",
		"doubleSided":false,
		"name":"Default"
	},
	{
		"pbrMetallicRoughness":{
			"baseColorTexture":{
				"index":0
			},
			"baseColorFactor":[0.8,
			0.8,
			0.8,
			1.0],
			"metallicFactor":1.0,
			"roughnessFactor":1.0
		},
		"emissiveFactor":[0.0,
		0.0,
		0.0],
		"alphaMode":"OPAQUE",
		"doubleSided":false,
		"name":"材质.1"
	}]
}